<svg xmlns="http://www.w3.org/2000/svg" width="32" height="32" viewBox="0 0 32 32"><linearGradient id="a" gradientUnits="userSpaceOnUse" x1="4.154" y1="7.74" x2="27.896" y2="24.365"><stop offset="0" stop-color="#666"/><stop offset="1"/></linearGradient><path fill="url(#a)" d="M30.5 16.1c0 8-6.5 14.5-14.5 14.5C8 30.5 1.5 24 1.5 16.1 1.5 8.1 8 1.6 16 1.6s14.5 6.5 14.5 14.5z"/><path fill="#C2C2C2" d="M26.1 20.6L17.3 5c-.3-.5-.8-.7-1.3-.7s-1 .3-1.3.7L5.9 20.6c-.3.4-.2 1 0 1.4.3.4.7.7 1.2.7h17.7c.5 0 1-.3 1.2-.7.4-.4.4-.9.1-1.4zm-16.5-.7L16 8.6l6.4 11.3H9.6z"/></svg>