<svg xmlns="http://www.w3.org/2000/svg" width="32" height="32" viewBox="0 0 32 32"><linearGradient id="a" gradientUnits="userSpaceOnUse" x1="223.241" y1="-332.25" x2="246.992" y2="-348.881" gradientTransform="matrix(1 0 0 -1 -219.1 -324.49)"><stop offset="0" stop-color="#666"/><stop offset="1"/></linearGradient><linearGradient id="b" gradientUnits="userSpaceOnUse" x1="4.158" y1="24.393" x2="31.448" y2="5.283"><stop offset="0" stop-color="#666"/><stop offset="1"/></linearGradient><path fill="url(#b)" d="M27 8.5c-1.9 0-3.5-1.6-3.5-3.5 0-.4.1-.8.2-1.2-2.2-1.4-4.9-2.2-7.7-2.2-8 0-14.5 6.5-14.5 14.5C1.5 24 8 30.5 16 30.6c8 0 14.5-6.5 14.5-14.5 0-2.9-.9-5.6-2.3-7.8-.4.1-.8.2-1.2.2z"/><path fill="#C2C2C2" d="M26.1 20.6L17.3 5c-.3-.5-.8-.7-1.3-.7s-1 .3-1.3.7L5.9 20.6c-.3.4-.2 1 0 1.4.3.4.7.7 1.2.7h17.7c.5 0 1-.3 1.2-.7.4-.4.4-.9.1-1.4zm-16.5-.7L16 8.6l6.4 11.3H9.6z"/><ellipse fill="#C82D52" cx="27" cy="5" rx="2.5" ry="2.5"/></svg>