<svg xmlns="http://www.w3.org/2000/svg" width="32" height="32" viewBox="0 0 32 32"><linearGradient id="a" gradientUnits="userSpaceOnUse" x1="442.341" y1="817.741" x2="466.092" y2="834.373" gradientTransform="translate(-438.2 -809.98)"><stop offset="0" stop-color="#666"/><stop offset="1"/></linearGradient><path fill="#333" d="M13.4 6c-.6.2-1.2-.2-1.4-.8-.2-.6.2-1.2.8-1.3.6-.2 1.2.2 1.4.8.1.6-.3 1.2-.8 1.3zm5.3 0c-.5-.1-.9-.7-.8-1.3.2-.6.8-.9 1.4-.8.6.1.9.7.7 1.3-.1.6-.7 1-1.3.8zm-10 2.7c-.4.4-1.1.4-1.5 0-.5-.4-.5-1.1 0-1.5.4-.5 1.1-.5 1.5 0 .4.4.4 1.1 0 1.5zm16.2 0c-.4.4-1.1.4-1.5 0-.4-.4-.4-1.1 0-1.5.4-.5 1.1-.5 1.5 0 .4.4.4 1.1 0 1.5zM9.4 12.4H11l-2 7.2H7.4l-1.2-4.9L5 19.6H3.4l-1.9-7.2h1.6l1.1 4.9 1.3-4.9H7l1.2 4.9 1.2-4.9zm9.9 0h1.5l-1.9 7.2h-1.6l-1.2-4.9H16l-1.2 4.9h-1.6l-1.9-7.2h1.6l1.2 4.9 1.2-4.9h1.5l1.2 4.9h.1l1.2-4.9zm11.3 0l-1.9 7.2h-1.5L26 14.7h-.1l-1.2 4.9H23l-1.9-7.2h1.6l1.2 4.9 1.2-4.9h1.5l1.2 4.9h.1l1.2-4.9h1.5zM7.2 23.3c.4-.4 1.1-.4 1.5 0 .4.4.4 1.1 0 1.5-.4.5-1.1.5-1.5 0-.5-.4-.5-1.1 0-1.5zm16.1 0c.4-.4 1.1-.4 1.5 0 .5.4.5 1.1 0 1.5-.4.5-1.1.5-1.5 0-.4-.4-.4-1.1 0-1.5zM13.4 26c.5.1.9.7.8 1.3-.2.6-.8.9-1.4.8-.6-.1-.9-.7-.8-1.3.2-.6.8-1 1.4-.8zm5.3 0c.6-.2 1.2.2 1.4.8.2.6-.2 1.2-.8 1.3-.6.2-1.2-.2-1.4-.8-.1-.6.3-1.2.8-1.3z"/></svg>