<svg xmlns="http://www.w3.org/2000/svg" width="32" height="32" viewBox="0 0 32 32"><linearGradient id="a" gradientUnits="userSpaceOnUse" x1="880.54" y1="1627.722" x2="904.291" y2="1644.353" gradientTransform="translate(-876.398 -1619.96)"><stop offset="0" stop-color="#666"/><stop offset="1"/></linearGradient><linearGradient id="g" gradientUnits="userSpaceOnUse" x1="4.142" y1="7.761" x2="31.131" y2="26.66"><stop offset="0" stop-color="#666"/><stop offset="1"/></linearGradient><path fill="url(#g)" d="M16.1 23.9c0-4.1 3.4-7.4 7.7-7.4 2.6 0 4.9 1.3 6.3 3.2.3-1.1.5-2.3.5-3.6 0-8-6.5-14.5-14.5-14.5S1.5 8.1 1.5 16.1C1.5 24 8 30.5 16 30.6c1.2 0 2.4-.2 3.5-.5-2.1-1.3-3.4-3.6-3.4-6.2z"/><path fill="#9CC3EB" d="M19.6 17.7l-1.5-1.6 5.3-5.3c.6-.5.6-1.4 0-2-.6-.6-1.5-.6-2 0l-5.3 5.3-5.3-5.3c-.6-.6-1.5-.6-2 0-.6.6-.6 1.5 0 2l5.2 5.3-5.3 5.3c-.6.6-.6 1.5 0 2 .3.3.6.4 1 .4s.7-.1 1-.4l5.3-5.3 1.5 1.5c.6-.8 1.3-1.4 2.1-1.9z"/><g><linearGradient id="h" gradientUnits="userSpaceOnUse" x1="237.807" y1="-345.079" x2="248.282" y2="-352.414" gradientTransform="matrix(1 0 0 -1 -219.1 -324.49)"><stop offset="0" stop-color="#666"/><stop offset="1"/></linearGradient><path fill="url(#h)" d="M30.3 24.3c0 3.5-2.9 6.4-6.4 6.4-3.5 0-6.4-2.9-6.4-6.4 0-3.5 2.9-6.4 6.4-6.4 3.6 0 6.4 2.8 6.4 6.4z"/><path fill="#9CC3EB" d="M27.3 20.6c-.3-.3-.7-.3-.9 0L24.1 23l-2.3-2.3c-.3-.3-.7-.3-.9 0-.3.3-.3.7 0 .9l2.3 2.3-2.3 2.3c-.3.3-.3.7 0 .9.1.1.3.2.4.2s.3 0 .4-.2l2.3-2.3 2.3 2.3c.1.1.3.2.4.2.2 0 .3 0 .4-.2.3-.3.3-.7 0-.9L25 23.8l2.3-2.3c.3-.2.3-.6 0-.9z"/></g></svg>