<svg xmlns="http://www.w3.org/2000/svg" width="32" height="32" viewBox="0 0 32 32"><linearGradient id="a" gradientUnits="userSpaceOnUse" x1="4.154" y1="7.74" x2="27.896" y2="24.365"><stop offset="0" stop-color="#666"/><stop offset="1"/></linearGradient><path fill="url(#a)" d="M30.5 16.1c0 8-6.5 14.5-14.5 14.5C8 30.5 1.5 24 1.5 16.1 1.5 8.1 8 1.6 16 1.6s14.5 6.5 14.5 14.5z"/><path fill="#9CC3EB" d="M23.4 8.7c-.6-.6-1.5-.6-2 0L16.1 14l-5.3-5.3c-.6-.6-1.5-.6-2 0-.6.6-.6 1.5 0 2L14 16l-5.3 5.3c-.6.6-.6 1.5 0 2 .3.3.6.4 1 .4s.7-.1 1-.4L16 18l5.3 5.3c.3.3.6.4 1 .4s.7-.1 1-.4c.6-.6.6-1.5 0-2L18.1 16l5.3-5.3c.6-.5.6-1.4 0-2z"/></svg>