<svg xmlns="http://www.w3.org/2000/svg" width="32" height="32" viewBox="0 0 32 32"><linearGradient id="a" gradientUnits="userSpaceOnUse" x1="223.241" y1="-332.25" x2="246.992" y2="-348.881" gradientTransform="matrix(1 0 0 -1 -219.1 -324.49)"><stop offset="0" stop-color="#666"/><stop offset="1"/></linearGradient><linearGradient id="b" gradientUnits="userSpaceOnUse" x1="4.158" y1="24.393" x2="31.448" y2="5.283"><stop offset="0" stop-color="#666"/><stop offset="1"/></linearGradient><path fill="url(#b)" d="M27 8.5c-1.9 0-3.5-1.6-3.5-3.5 0-.4.1-.8.2-1.2-2.2-1.4-4.9-2.2-7.7-2.2-8 0-14.5 6.5-14.5 14.5C1.5 24 8 30.5 16 30.6c8 0 14.5-6.5 14.5-14.5 0-2.9-.9-5.6-2.3-7.8-.4.1-.8.2-1.2.2z"/><path fill="#C2C2C2" d="M24.5 23.2V9.1c0-.8-.6-1.4-1.4-1.4H9c-.8 0-1.5.6-1.5 1.4v14.1c0 .8.6 1.4 1.4 1.4H23c.8 0 1.5-.6 1.5-1.4zm-2.9-1.5H10.4V10.5h11.2v11.2z"/><ellipse fill="#C82D52" cx="27" cy="5" rx="2.5" ry="2.5"/><linearGradient id="e" gradientUnits="userSpaceOnUse" x1="223.242" y1="-332.334" x2="246.993" y2="-348.965" gradientTransform="matrix(1 0 0 -1 -219.1 -324.49)"><stop offset="0" stop-color="#666"/><stop offset="1"/></linearGradient><linearGradient id="f" gradientUnits="userSpaceOnUse" x1="223.242" y1="-332.334" x2="246.993" y2="-348.965" gradientTransform="matrix(1 0 0 -1 -219.1 -324.49)"><stop offset="0" stop-color="#666"/><stop offset="1"/></linearGradient></svg>