<svg xmlns="http://www.w3.org/2000/svg" width="32" height="32" viewBox="0 0 32 32"><linearGradient id="a" gradientUnits="userSpaceOnUse" x1="223.241" y1="-332.25" x2="246.992" y2="-348.881" gradientTransform="matrix(1 0 0 -1 -219.1 -324.49)"><stop offset="0" stop-color="#666"/><stop offset="1"/></linearGradient><linearGradient id="c" gradientUnits="userSpaceOnUse" x1="4.142" y1="7.761" x2="36.927" y2="30.718"><stop offset="0" stop-color="#666"/><stop offset=".401" stop-color="#3D3D3D"/><stop offset="1"/></linearGradient><path fill="url(#c)" d="M16.5 22.3c0-1.3 1-2.3 2.2-2.4-.1-.2-.1-.4-.1-.6 0-2.9 2.4-5.3 5.3-5.3s5.3 2.4 5.3 5.3c0 .2-.1.4-.1.6h.9c.3-1.2.5-2.5.5-3.9C30.5 8 24 1.5 16 1.5S1.5 8.1 1.5 16.1C1.5 24 8 30.5 16 30.6h.5v-8.3z"/><path fill="#333" d="M29.5 21.3h-1.1v-1.6c0-2.3-1.9-4.2-4.2-4.2-2.3 0-4.2 1.9-4.2 4.2v1.6h-1.1c-.6 0-1.1.5-1.1 1.1v7.1c0 .6.5 1.1 1.1 1.1h10.5c.6 0 1.1-.5 1.1-1.1v-7.1c.1-.6-.4-1.1-1-1.1zM25 26.5v1.9h-1.6v-1.9c-.6-.3-.9-.9-.9-1.5 0-1 .8-1.8 1.8-1.8s1.8.8 1.8 1.8c-.1.7-.5 1.3-1.1 1.5zm1.3-5.2h-4.2v-1.5c0-1.1.9-2.1 2.1-2.1 1.1 0 2.1.9 2.1 2.1v1.5z"/><path fill="#EFACED" d="M16.5 22.3c0-.2 0-.5.1-.7h-6.2V10.5h11.2v4.1c.7-.3 1.5-.5 2.3-.5.2 0 .4 0 .6.1v-5c0-.8-.6-1.4-1.4-1.4H9c-.8 0-1.5.6-1.5 1.4v14.1c0 .8.6 1.4 1.4 1.4h7.6v-2.4z"/><linearGradient id="e" gradientUnits="userSpaceOnUse" x1="223.242" y1="-332.334" x2="246.993" y2="-348.965" gradientTransform="matrix(1 0 0 -1 -219.1 -324.49)"><stop offset="0" stop-color="#666"/><stop offset="1"/></linearGradient><linearGradient id="f" gradientUnits="userSpaceOnUse" x1="223.242" y1="-332.334" x2="246.993" y2="-348.965" gradientTransform="matrix(1 0 0 -1 -219.1 -324.49)"><stop offset="0" stop-color="#666"/><stop offset="1"/></linearGradient></svg>