<svg xmlns="http://www.w3.org/2000/svg" width="32" height="32" viewBox="0 0 32 32"><circle fill="#C2C2C2" cx="16" cy="16" r="14"/><linearGradient id="a" gradientUnits="userSpaceOnUse" x1="4.154" y1="7.74" x2="27.896" y2="24.365"><stop offset="0" stop-color="#666"/><stop offset="1"/></linearGradient><path fill="url(#a)" d="M30.5 16.1c0 8-6.5 14.5-14.5 14.5C8 30.5 1.5 24 1.5 16.1 1.5 8.1 8 1.6 16 1.6s14.5 6.5 14.5 14.5z"/><linearGradient id="b" gradientUnits="userSpaceOnUse" x1="4.154" y1="7.74" x2="27.896" y2="24.365"><stop offset="0" stop-color="#666"/><stop offset="1"/></linearGradient><path fill="url(#b)" d="M30.5 16.1c0 8-6.5 14.5-14.5 14.5C8 30.5 1.5 24 1.5 16.1 1.5 8.1 8 1.6 16 1.6s14.5 6.5 14.5 14.5z"/><path fill="#C2C2C2" d="M24.5 23.1V9c0-.8-.6-1.4-1.4-1.4H9c-.8 0-1.5.6-1.5 1.4v14.1c0 .8.6 1.4 1.4 1.4H23c.8 0 1.5-.6 1.5-1.4zm-2.9-1.5H10.4V10.4h11.2v11.2z"/></svg>