<svg xmlns="http://www.w3.org/2000/svg" width="32" height="32" viewBox="0 0 32 32"><linearGradient id="a" gradientUnits="userSpaceOnUse" x1="4.154" y1="7.74" x2="27.896" y2="24.365"><stop offset="0" stop-color="#666"/><stop offset="1"/></linearGradient><path fill="url(#a)" d="M30.5 16.1c0 8-6.5 14.5-14.5 14.5C8 30.5 1.5 24 1.5 16.1 1.5 8.1 8 1.6 16 1.6s14.5 6.5 14.5 14.5z"/><path fill="#EB6355" d="M15.9 5.4C10 5.4 5.2 10.2 5.2 16c0 5.9 4.8 10.7 10.7 10.7 5.9 0 10.7-4.8 10.7-10.7 0-5.8-4.8-10.6-10.7-10.6zm0 18.4c-4.3 0-7.8-3.5-7.8-7.8s3.5-7.8 7.8-7.8 7.8 3.5 7.8 7.8-3.5 7.8-7.8 7.8z"/></svg>