<svg xmlns="http://www.w3.org/2000/svg" width="32" height="32" viewBox="0 0 32 32"><linearGradient id="a" gradientUnits="userSpaceOnUse" x1="223.241" y1="-332.25" x2="246.992" y2="-348.881" gradientTransform="matrix(1 0 0 -1 -219.1 -324.49)"><stop offset="0" stop-color="#666"/><stop offset="1"/></linearGradient><linearGradient id="f" gradientUnits="userSpaceOnUse" x1="1" y1="5.561" x2="27.892" y2="24.392"><stop offset="0" stop-color="#666"/><stop offset="1"/></linearGradient><path fill="url(#f)" d="M16 1.6c-2 0-3.9.4-5.6 1.1 3.1 1.1 5.4 4 5.4 7.4 0 4.3-3.6 7.9-8.1 7.9-2.4 0-4.6-1-6.1-2.7v.8C1.5 24 8 30.5 16 30.6c8 0 14.5-6.5 14.5-14.5S24 1.6 16 1.6z"/><path fill="#C2C2C2" d="M15.9 5.5c-.5 0-1.1.1-1.6.1.6.8 1 1.7 1.2 2.7h.4c4.3 0 7.8 3.5 7.8 7.8s-3.5 7.8-7.8 7.8c-3.6 0-6.7-2.5-7.5-5.9h-.6c-.8 0-1.6-.1-2.4-.4.8 5.1 5.2 9.1 10.6 9.1 5.9 0 10.7-4.8 10.7-10.7-.1-5.7-4.9-10.5-10.8-10.5z"/><g><ellipse fill="#FFCF2D" cx="7.5" cy="12" rx="5.4" ry="4.7"/><path fill="#C82D52" d="M5.1 16.2c-1-2-.5-3.1.3-4.2.9-1.2 1.1-2.4 1.1-2.4s.6.8.4 2.1c1.2-1.2 1.4-3.2 1.2-4 2.6 1.7 3.7 5.6 2.2 8.5 8-4.4 2-11 1-11.7.4.7.4 2-.3 2.6-1.2-4.5-4.2-5.4-4.2-5.4C7.2 4 5.5 6.4 4 8.3c-.1-.9-.1-1.5-.6-2.4-.1 1.6-1.4 3-1.8 4.6-.5 2.3.3 3.9 3.5 5.7z"/></g></svg>