<svg xmlns="http://www.w3.org/2000/svg" width="32" height="32" viewBox="0 0 32 32"><linearGradient id="a" gradientUnits="userSpaceOnUse" x1="223.241" y1="-332.25" x2="246.992" y2="-348.881" gradientTransform="matrix(1 0 0 -1 -219.1 -324.49)"><stop offset="0" stop-color="#666"/><stop offset="1"/></linearGradient><ellipse fill="#C82D52" cx="27" cy="5" rx="2.5" ry="2.5"/><linearGradient id="e" gradientUnits="userSpaceOnUse" x1="2.254" y1="3.77" x2="29.146" y2="22.6"><stop offset="0" stop-color="#666"/><stop offset="1"/></linearGradient><path fill="url(#e)" d="M27 8.5c-1.9 0-3.5-1.6-3.5-3.5 0-.4.1-.8.2-1.2-2.2-1.4-4.9-2.2-7.7-2.2-2 0-3.9.4-5.6 1.1 3.1 1.1 5.4 4 5.4 7.4 0 4.3-3.6 7.9-8.1 7.9-2.4 0-4.6-1-6.1-2.7v.8C1.5 24 8 30.5 16 30.6c8 0 14.5-6.5 14.5-14.5 0-2.9-.9-5.6-2.3-7.8-.4.1-.8.2-1.2.2z"/><path fill="#EB6355" d="M15.9 5.5c-.5 0-1.1.1-1.6.1.6.8 1 1.7 1.2 2.7h.4c4.3 0 7.8 3.5 7.8 7.8s-3.5 7.8-7.8 7.8c-3.6 0-6.7-2.5-7.5-5.9h-.6c-.8 0-1.6-.1-2.4-.4.8 5.1 5.2 9.1 10.6 9.1 5.9 0 10.7-4.8 10.7-10.7-.1-5.7-4.9-10.5-10.8-10.5z"/><g><ellipse fill="#FFCF2D" cx="7.5" cy="12" rx="5.4" ry="4.7"/><path fill="#C82D52" d="M5.1 16.2c-1-2-.5-3.1.3-4.2.9-1.2 1.1-2.4 1.1-2.4s.6.8.4 2.1c1.2-1.2 1.4-3.2 1.2-4 2.6 1.7 3.7 5.6 2.2 8.5 8-4.4 2-11 1-11.7.4.7.4 2-.3 2.6-1.2-4.5-4.2-5.4-4.2-5.4C7.2 4 5.5 6.4 4 8.3c-.1-.9-.1-1.5-.6-2.4-.1 1.6-1.4 3-1.8 4.6-.5 2.3.3 3.9 3.5 5.7z"/></g></svg>