<svg xmlns="http://www.w3.org/2000/svg" width="32" height="32" viewBox="0 0 32 32"><linearGradient id="a" gradientUnits="userSpaceOnUse" x1="442.341" y1="817.741" x2="466.092" y2="834.373" gradientTransform="translate(-438.2 -809.98)"><stop offset="0" stop-color="#666"/><stop offset="1"/></linearGradient><path fill="url(#a)" d="M30.5 16.1c0 8-6.5 14.5-14.5 14.5C8 30.5 1.5 24 1.5 16.1 1.5 8.1 8 1.6 16 1.6s14.5 6.5 14.5 14.5z"/><path fill="#C2C2C2" d="M5.5 12.8l9-5.2V11c4.7.1 7.7 2.4 8.4 7.3h.2c1.3 0 2.4 1.1 2.4 2.4 0 1.3-1.1 2.4-2.4 2.4s-2.4-1-2.4-2.4c0-.9.5-1.6 1.2-2-2-2.9-4.1-3.8-7.3-3.9V18l-9.1-5.2z"/></svg>