<svg xmlns="http://www.w3.org/2000/svg" width="32" height="32" viewBox="0 0 32 32"><linearGradient id="a" gradientUnits="userSpaceOnUse" x1="223.241" y1="-332.25" x2="246.992" y2="-348.881" gradientTransform="matrix(1 0 0 -1 -219.1 -324.49)"><stop offset="0" stop-color="#666"/><stop offset="1"/></linearGradient><linearGradient id="d" gradientUnits="userSpaceOnUse" x1="5.396" y1="5.97" x2="38.181" y2="28.926"><stop offset="0" stop-color="#666"/><stop offset=".341" stop-color="#434343"/><stop offset="1"/></linearGradient><path fill="url(#d)" d="M27 8.5c-1.9 0-3.5-1.6-3.5-3.5 0-.4.1-.8.2-1.2-2.2-1.4-4.9-2.2-7.7-2.2-8 0-14.5 6.5-14.5 14.5C1.5 24 8 30.5 16 30.6h.5v-8.2c0-1.3 1-2.3 2.2-2.4-.1-.2-.1-.4-.1-.6 0-2.9 2.4-5.3 5.3-5.3s5.3 2.4 5.3 5.3c0 .2-.1.4-.1.6h.9c.3-1.2.5-2.5.5-3.9 0-2.9-.9-5.6-2.3-7.8-.4.1-.8.2-1.2.2z"/><ellipse fill="#C82D52" cx="27" cy="5" rx="2.5" ry="2.5"/><path fill="#333" d="M29.5 21.3h-1.1v-1.6c0-2.3-1.9-4.2-4.2-4.2-2.3 0-4.2 1.9-4.2 4.2v1.6h-1.1c-.6 0-1.1.5-1.1 1.1v7.1c0 .6.5 1.1 1.1 1.1h10.5c.6 0 1.1-.5 1.1-1.1v-7.1c.1-.6-.4-1.1-1-1.1zM25 26.5v1.9h-1.6v-1.9c-.6-.3-.9-.9-.9-1.5 0-1 .8-1.8 1.8-1.8s1.8.8 1.8 1.8c-.1.7-.5 1.3-1.1 1.5zm1.3-5.2h-4.2v-1.5c0-1.1.9-2.1 2.1-2.1 1.1 0 2.1.9 2.1 2.1v1.5z"/><g><path fill="#C2C2C2" d="M16.5 23.9h-.6c-4.3 0-7.8-3.5-7.8-7.8s3.5-7.8 7.8-7.8c3.6 0 6.7 2.5 7.5 5.8h.4c1 0 1.8.3 2.6.7-.7-5.2-5.2-9.3-10.6-9.3-5.8 0-10.6 4.8-10.6 10.6 0 5.9 4.8 10.7 10.7 10.7h.6v-2.9z"/></g></svg>